<?xml version="1.0" standalone="no"?>
<!DOCTYPE svg PUBLIC "-//W3C//DTD SVG 20010904//EN"
 "http://www.w3.org/TR/2001/REC-SVG-20010904/DTD/svg10.dtd">
<svg version="1.0" xmlns="http://www.w3.org/2000/svg"
 width="600.000000pt" height="500.000000pt" viewBox="0 0 600.000000 500.000000"
 preserveAspectRatio="xMidYMid meet">
<g transform="translate(0.000000,500.000000) scale(0.100000,-0.100000)"
fill="#000000" stroke="none">
<path d="M2907 3388 c-14 -7 -17 -25 -17 -98 0 -64 -5 -100 -17 -125 -15 -31
-15 -39 -4 -57 7 -12 19 -42 25 -66 11 -47 22 -57 68 -67 39 -8 51 -35 33 -78
-8 -19 -18 -81 -22 -137 -6 -75 -12 -105 -23 -111 -8 -4 -54 -19 -101 -33 -92
-27 -119 -50 -119 -100 0 -13 -7 -52 -15 -85 -15 -58 -15 -64 10 -173 31 -133
39 -189 28 -204 -4 -6 -36 -26 -70 -43 -59 -29 -63 -33 -63 -66 l0 -35 130 0
130 0 0 209 c0 243 -2 238 87 227 31 -4 63 -12 70 -18 10 -8 13 -49 13 -164 0
-84 4 -164 10 -178 12 -33 59 -56 112 -56 24 0 91 9 150 20 l107 19 58 -26
c73 -34 147 -38 151 -8 3 25 -134 195 -157 195 -10 0 -32 -11 -51 -25 -28 -21
-45 -25 -102 -25 -56 0 -72 4 -89 21 -11 11 -19 26 -16 32 12 31 38 132 59
222 50 221 7 502 -93 606 -21 22 -39 45 -39 50 0 14 38 49 54 49 15 0 22 40
32 179 11 142 -8 158 -190 158 -67 1 -130 -3 -139 -9z m182 -8 c64 0 80 -4
105 -23 38 -30 46 -101 21 -179 -9 -30 -15 -63 -13 -73 2 -12 -8 -24 -27 -35
-25 -13 -31 -24 -33 -57 -3 -35 1 -44 26 -62 40 -28 79 -121 103 -241 31 -165
27 -217 -37 -468 -27 -105 -30 -142 -12 -160 8 -8 46 -12 105 -12 81 0 98 3
123 22 19 14 34 18 39 12 5 -5 39 -45 75 -89 56 -67 64 -81 49 -86 -10 -4 -47
5 -83 19 -91 35 -123 37 -248 13 -134 -26 -176 -18 -205 39 -16 31 -18 52 -13
177 7 171 5 176 -92 187 -70 8 -99 -2 -108 -39 -3 -14 -5 -108 -3 -210 l4
-185 -112 0 c-107 0 -113 1 -113 20 0 15 17 29 65 52 48 24 67 39 72 57 3 14
-8 87 -27 169 -31 131 -32 148 -21 185 7 23 14 57 16 75 4 54 24 80 80 101 28
11 69 23 90 27 62 11 75 32 75 122 0 43 7 102 16 131 26 87 18 107 -51 128
-21 6 -32 17 -39 38 -5 17 -15 47 -24 67 -12 31 -12 40 -2 53 8 9 14 51 15
108 2 50 4 96 4 100 2 14 45 27 75 22 16 -3 63 -5 105 -5z"/>
<path d="M3105 2341 c-3 -5 -2 -12 3 -15 5 -3 9 1 9 9 0 17 -3 19 -12 6z"/>
</g>
</svg>
