<svg xmlns="http://www.w3.org/2000/svg" xml:space="preserve" id="rose" x="0" y="0" style="enable-background:new 0 0 512 512" version="1.1" viewBox="0 0 512 512">
  <path d="M207.87,416.07c-63.02-19.59-103.78-77.69-126.89-136.68c-5.12-12.62-7.76-25.86-9.6-39.31
	c-2.72-17.08-4.07-34.47-8.23-51.28c-1.61-7.05-6.1-12.59-10.49-18.11c-3-4.84-0.31-10.18,5.36-10.31
	c17.32-0.38,34.42,0.93,50.82,7.16c1.23,0.33,2.77,1.31,3.97,0.95C98.03,111.08,132.37,52.52,169.1,10.74
	c2.13-2.31,5-2.27,7.68-0.88c7.89,3.69,15.81,7.34,23.67,11.09c10.88,5.52,21.21,12.37,27.43,23.32
	c5.88-9.05,14.15-15.42,23.66-20.33c10.74-5.79,18.64-15.18,28.47-22.2c9.37-6.69,34.08,7.66,43.56,13.24
	c46.63,27.38,85.66,71.72,93.63,126.63c7.97-3.16,15.94-5.85,24.4-7.28c5.2-1.03,8.24,0.96,10.4,6.11
	c7.88,18.81,9.36,38.51,8.26,58.58c-7.93,89.07-45.3,158.39-122.37,205.76c12.37,17.06,26.31,44.59,21.43,65.96
	c-1.26,5.74-5.73,10.8-12.07,9.3c-14.35-4.75-27.9-11.62-42.06-16.99c-3.92,14.4-9.68,28.08-16.46,41.41
	c-2.5,5.98-7.48,9.75-13.7,6.1c-17.77-9.96-28.83-27.62-36.12-46.16c-12.31,10.09-25.07,19.14-39.23,26.39
	c-15.99,8.82-32.63,13.61-25.9-12c4.34-16.79,12.69-32.26,21.5-47.1C198.69,425.77,203.15,420.98,207.87,416.07z M293,292.32
	c-0.14-0.34-0.28-0.68-0.43-1.02c-15.1-3.53-30.73-5.7-44.3-13.71c-16.43-9.54-32.9-19.05-48.91-29.27
	c-27.96-17.31-51.48-44.56-84.8-51.38c18.64,29.1,23.1,63.61,31.98,96.35c6.57,26.04,18.48,49.57,34,71.33
	c79.77,111.65,231.71-5.03,252.94-107c8.22-35.22,18.42-73.14,6.06-108.53c-20.82,3.76-48.35,18.49-59.57,36.58
	c-3.08,23.93-12.57,46.13-27.74,64.83c-12.33,15.53-25.45,30.33-41.49,42.24c-31.58,23.75-47.97,58.45-60.11,95.07
	c-1.06,2.6-4.69,6.27-6.89,2.62c-1.83-3.09-1.28-7.06-0.84-10.43C249.29,346.03,266.8,314.87,293,292.32z M360.12,107.59
	c-38.08,21.24-81.55,47.33-102.75,86.56c24.28,23.71,40.65,52.01,51.87,83.86C364.36,231.99,379.21,176.13,360.12,107.59z
	 M297.59,277.6c-14.43-23.75-25.62-49.61-46.18-68.96c-31.58-33.45-55.63-47.02-99.54-60.23c-1.22,13.08-2.33,26.05,2.09,38.62
	c1.69,4.97,3.43,9.92,5.29,14.83c0.36,0.94,1.26,1.81,2.11,2.42c27.38,18.76,54.65,37.66,83.72,53.77
	C260.83,269.13,279.1,273.4,297.59,277.6z M286.31,10.53c-8.8,10.45-19.28,16.93-31.3,23.3c-7.79,4.29-14.24,7.11-19.57,15.01
	c26.58-6.99,57.64-2.84,76.91,18.22c11.6,13.68,20.6,24.94,19.9,43.87c8.38-3.8,16.26-8.36,25.27-10.26
	c3.24-0.49,6.96-3.26,9.67-0.31c10.71,17.19,13.84,42.22,14.24,62.3c0,1.11-0.4,2.36,0.62,3.56c7.34-7.12,14.54-14.14,23.78-18.85
	C395.16,81.97,349.83,30.34,286.31,10.53z M323.13,412.36c-32.85,15.53-68.51,15.68-103.1,6.25c-8.97-1.37-33.59,53.33-33.84,62.73
	c13.59-6.05,26.43-14.41,38.35-23.47c9.45-6.79,20.24-18.09,26.33-1.32c6.54,14.3,13.57,29.05,26.51,38.7
	c29.55-52.17-1.48-57.65,67.2-32.71C345.94,450.76,333.26,421.18,323.13,412.36z M173.77,19.42
	c-36.88,46.2-72.81,110.91-42.84,169.38c0.33,0.67,0.78,1.54,1.39,1.76c3.19,1.2,6.45,2.23,10.13,3.46
	c-4.74-15.13-5.14-30.42-0.69-45.56c3.77-12.84,16.25-10.95,25.81-7.6c-3.09-21.69,9.64-71.25,52.52-87.04
	C211.64,34.39,189.57,30.78,173.77,19.42z M202.64,89.54c21.53-28.56,71.51-36.06,94.46-5.54c21.24,30.99-26.81,59.99-54.17,59.49
	c-12.33,0.43-23.77-3.23-34.63-9.03c-18.21-9.17-14.57-30.69-14.92-47.67c-0.01-0.41-0.52-0.61-0.81-0.31
	c-13.95,14.17-18.61,35.54-15.88,54.84c0.28,1.89,1.01,3.03,2.98,3.46c27.17,7.52,50.53,22.64,70.67,42.16
	c13.1-31.05,42.04-50.67,69.48-68c1.31-0.81,1.92-1.69,1.85-3.18c-0.13-2.77-0.5-5.52-0.57-8.29c-0.15-6.22-1.68-12.09-5.16-17.19
	c-14.11-24.27-38.43-36.95-67.03-33.48c-28.21,3.42-41.18,14.27-47.77,22.26C201.7,82.92,202.15,86.06,202.64,89.54z M122.02,188.4
	c-2.63-3.37-2.85-8.22-7.23-9.06c-14.43-2.72-28.62-7.17-43.46-6.58c5.59,9.52,7.72,19.57,9.4,29.73
	c1.91,11.57,3.67,23.17,5.41,34.77c8.79,52.64,42.81,115.07,87.55,145.22c-47.62-63.3-41.56-105.99-67.53-173.62
	c-1.38-3.79-6.6-17.52-0.77-18.75C111.06,189.35,116.19,188.26,122.02,188.4z M204.34,115.27c1.43,11,25.87,16.91,35.31,16.91
	c18.56,2.07,62.97-18.52,48.79-41.44c-17.63-24.61-62.7-18.4-77.96,5.84c-6.85,11.45,10.05,15.42,18.13,17.3
	c9.86,1.95,18.55-1,26.39-6.94c3.98-2.26,2.25-7.07-2.11-6.77c-3.76,0.24-7.55,0.86-11.03,2.32c-2.76,0.74-4.85-1.33-3.77-3.95
	c5.18-10.3,24.77-11.33,28.57,0.38c2.05,5.73,0.31,11.33-4.68,15.3C244.8,127.85,221.38,128.8,204.34,115.27z M380.04,230.15
	c-6.3,12.92-13.98,24.94-23.19,36c-13.04,15.66-26.59,30.82-42.52,43.66c-17.52,14.82-33.91,34.01-37.78,57.25
	c-0.64,7.96,4.29,9.33,8.17,2.63c4.94-8.1,9.77-16.31,15.21-24.08c6.79-9.56,15.36-17.38,24.4-24.78
	c18.9-14.78,35.15-32.48,49.75-51.46c10.12-13.56,26.61-38.48,25.27-57.58c-0.26-3.77-5.04-5.35-7.54-2.52
	C386.51,215.27,383.96,222.96,380.04,230.15z M282.45,179.94c-1.08,1.98-1.43,4.43-1.74,6.72c-0.76,4.57,4.39,7.32,7.79,4.11
	c1.97-1.64,3.91-3.33,5.79-5.07c8.76-8.13,17.56-16.19,27.4-23.05c5.06-3.73,9.9-7.39,13.28-12.44c2.33-3.49-0.54-8.16-4.68-7.49
	C312.83,145.55,288.26,167.62,282.45,179.94z M134.74,112.89c-0.26,4.14,4.51,5.66,6.92,2.41c5.65-7.08,8.84-15.74,12.98-23.73
	c5.15-10.82,11.12-21.14,18.11-30.87c1.6-2.4,3.07-4.65,4.15-7.15c1.23-2.84-1.62-5.68-4.46-4.44
	C151.72,58.19,136.25,92.87,134.74,112.89z"></path>
</svg>
